<svg version="1.2" xmlns="http://www.w3.org/2000/svg" viewBox="0 0 40 40" width="40" height="40">
	<title>facebook-svg</title>
	<defs>
		<linearGradient id="g1" x2="1" gradientUnits="userSpaceOnUse" gradientTransform="matrix(30.622,30.622,-30.622,30.622,5.993,5.993)">
			<stop offset="0" stop-color="#2aa4f4"/>
			<stop offset="1" stop-color="#007ad9"/>
		</linearGradient>
	</defs>
	<style>
		.s0 { fill: url(#g1) } 
		.s1 { fill: #ffffff } 
	</style>
	<path id="Layer" class="s0" d="m20 0c-11 0-20 9-20 20 0 11 9 20 20 20 11 0 20-9 20-20 0-11-9-20-20-20z"/>
	<path id="Layer" class="s1" d="m22.7 25.3h5.2l0.8-5.3h-6v-2.8c0-2.2 0.7-4.2 2.8-4.2h3.2v-4.5c-0.5-0.1-1.7-0.3-4.1-0.3-4.8 0-7.6 2.6-7.6 8.3v3.5h-4.9v5.3h4.9v14.5q1.5 0.2 3 0.2 1.4 0 2.7-0.2z"/>
</svg>