<svg version="1.2" xmlns="http://www.w3.org/2000/svg" viewBox="0 0 36 36" width="36" height="36">
	<title>instagram-svg</title>
	<defs>
		<radialGradient id="g1" cx="0" cy="0" r="1" gradientUnits="userSpaceOnUse" gradientTransform="matrix(44.899,0,0,44.899,13.38,36.035)">
			<stop offset="0" stop-color="#ffdd55"/>
			<stop offset=".328" stop-color="#ff543f"/>
			<stop offset=".348" stop-color="#fc5245"/>
			<stop offset=".504" stop-color="#e64771"/>
			<stop offset=".643" stop-color="#d53e91"/>
			<stop offset=".761" stop-color="#cc39a4"/>
			<stop offset=".841" stop-color="#c837ab"/>
		</radialGradient>
		<radialGradient id="g2" cx="0" cy="0" r="1" gradientUnits="userSpaceOnUse" gradientTransform="matrix(29.813,0,0,29.813,5.786,-0.46)">
			<stop offset="0" stop-color="#4168c9" stop-opacity="1"/>
			<stop offset=".999" stop-color="#4168c9" stop-opacity="0"/>
		</radialGradient>
	</defs>
	<style>
		.s0 { fill: url(#g1) } 
		.s1 { fill: url(#g2) } 
		.s2 { fill: #ffffff } 
	</style>
	<path id="Layer" class="s0" d="m28 36h-20c-4.4 0-8-3.6-8-8v-20c0-4.4 3.6-8 8-8h20c4.4 0 8 3.6 8 8v20c0 4.4-3.6 8-8 8z"/>
	<path id="Layer" class="s1" d="m28 36h-20c-4.4 0-8-3.6-8-8v-20c0-4.4 3.6-8 8-8h20c4.4 0 8 3.6 8 8v20c0 4.4-3.6 8-8 8z"/>
	<path id="Layer" fill-rule="evenodd" class="s2" d="m18 25c-3.9 0-7-3.1-7-7 0-3.9 3.1-7 7-7 3.9 0 7 3.1 7 7 0 3.9-3.1 7-7 7zm0-12c-2.8 0-5 2.2-5 5 0 2.8 2.2 5 5 5 2.8 0 5-2.2 5-5 0-2.8-2.2-5-5-5z"/>
	<path id="Layer" class="s2" d="m25.5 12c-0.8 0-1.5-0.7-1.5-1.5 0-0.8 0.7-1.5 1.5-1.5 0.8 0 1.5 0.7 1.5 1.5 0 0.8-0.7 1.5-1.5 1.5z"/>
	<path id="Layer" fill-rule="evenodd" class="s2" d="m24 31h-12c-3.9 0-7-3.1-7-7v-12c0-3.9 3.1-7 7-7h12c3.9 0 7 3.1 7 7v12c0 3.9-3.1 7-7 7zm-12-24c-2.8 0-5 2.2-5 5v12c0 2.8 2.2 5 5 5h12c2.8 0 5-2.2 5-5v-12c0-2.8-2.2-5-5-5z"/>
</svg>