<svg version="1.2" xmlns="http://www.w3.org/2000/svg" viewBox="0 0 40 40" width="40" height="40">
	<title>spotify-svg</title>
	<defs>
		<linearGradient id="g1" x2="1" gradientUnits="userSpaceOnUse" gradientTransform="matrix(0,61.075,-61.075,0,20.001,-8.765)">
			<stop offset="0" stop-color="#4caf50"/>
			<stop offset=".489" stop-color="#4aaf50"/>
			<stop offset=".665" stop-color="#43ad50"/>
			<stop offset=".79" stop-color="#38aa50"/>
			<stop offset=".892" stop-color="#27a550"/>
			<stop offset=".978" stop-color="#11a050"/>
			<stop offset="1" stop-color="#0a9e50"/>
		</linearGradient>
	</defs>
	<style>
		.s0 { fill: url(#g1) } 
		.s1 { opacity: .1;fill: #000000 } 
		.s2 { fill: #ffffff } 
	</style>
	<path id="Layer" class="s0" d="m20 0c-11.1 0-20 8.9-20 20 0 11.1 8.9 20 20 20 11.1 0 20-8.9 20-20 0-11.1-8.9-20-20-20z"/>
	<path id="Layer" fill-rule="evenodd" class="s1" d="m33.5 14.7c1 0.5 1.5 1.5 1.5 2.6v0.1 0.1c-0.2 1.5-1.4 2.6-2.9 2.6-0.5 0-0.8-0.1-1-0.2q-0.1-0.1-0.3-0.1l-0.1-0.1h-0.1c-3.3-2-8.3-3.1-13.4-3.1-2.6 0-5.1 0.3-7.3 0.8l-0.1 0.1h-0.2q-0.1 0-0.2 0c-0.2 0.1-0.4 0.1-0.7 0.1q-0.2 0-0.3 0c-1.4 0-2.6-1.2-2.6-2.7 0-1.4 0.9-2.5 2.1-2.8 2.7-0.8 5.5-1.2 9.3-1.2 6.1 0 12 1.4 16.3 3.8zm-2.6 6.3c0.8 0.5 1.4 1.3 1.4 2.3 0 1.5-1.1 2.6-2.5 2.6-0.7 0-1.1-0.2-1.5-0.4h-0.1c-3-1.9-7.1-2.9-11.6-2.9-2.1 0-4.2 0.2-5.8 0.7-0.6 0.2-0.8 0.2-1.2 0.2-1.3 0-2.4-1.1-2.4-2.5q0-1.8 1.8-2.5v-0.1h0.1c2-0.5 4.4-1 7.7-1 5.2 0 10.2 1.3 14.1 3.6zm-2.1 5.7h0.1c0.6 0.4 1.2 1 1.2 2.2v0.1l-0.1 0.1c-0.2 1-1.2 1.8-2.3 1.8-0.5 0-0.9-0.2-1.3-0.4-2.7-1.5-5.9-2.4-9.3-2.4q-2.7 0-5.8 0.7l-0.1 0.1h-0.1c-0.1 0-0.3 0-0.4 0q-0.2 0.1-0.5 0.1c-1.2 0-2.2-0.9-2.2-2.2 0-1.1 0.7-2 1.8-2.2 2.5-0.6 4.9-0.9 7.4-0.9 4.2 0 8.3 1 11.6 3zm-20.6-13.6c-0.8 0.2-1.4 0.7-1.4 1.8 0 0.9 0.7 1.7 1.6 1.7q0.1 0 0.2 0c0.4 0 0.7-0.1 1-0.1 2.4-0.6 5-0.9 7.6-0.9 5.1 0 10.4 1.2 13.9 3.2 0.4 0.2 0.6 0.3 1 0.3 1.1 0 1.8-0.7 1.9-1.8 0-0.8-0.4-1.4-1-1.7-4.4-2.5-10.2-3.7-15.8-3.7-3.3 0-6.3 0.3-9 1.2zm1.1 6.3c-0.7 0.3-1.1 0.7-1.1 1.6 0 0.7 0.5 1.5 1.4 1.5 0.3 0 0.5 0 0.9-0.2 1.6-0.4 3.8-0.7 6.1-0.7 4.9 0 9.1 1.2 12.2 3.1 0.3 0.1 0.6 0.2 1 0.2 0.9 0 1.5-0.7 1.5-1.6 0-0.5-0.3-1.1-0.9-1.4-3.8-2.4-8.6-3.5-13.6-3.5-3.1 0-5.3 0.4-7.5 1zm0.8 6.1c-0.6 0.2-1.1 0.6-1.1 1.3 0 0.6 0.5 1.2 1.2 1.2 0.2 0 0.6-0.1 0.9-0.1 1.9-0.5 3.9-0.8 6-0.8 3.6 0 7 0.9 9.8 2.5 0.3 0.2 0.6 0.3 0.8 0.3 0.6 0 1.2-0.4 1.4-1 0-0.7-0.3-1-0.8-1.3-3.2-1.9-7-2.9-11.1-2.9-2.5 0-4.8 0.2-7.1 0.8z"/>
	<path id="Layer" fill-rule="evenodd" class="s1" d="m33.2 15.1c0.9 0.5 1.3 1.3 1.3 2.2v0.1c-0.2 1.3-1.1 2.2-2.4 2.2-0.4 0-0.6-0.1-0.8-0.2q-0.2-0.1-0.3-0.1h-0.1v-0.1c-3.4-1.9-8.5-3.1-13.7-3.1-2.6 0-5.2 0.3-7.5 0.9h-0.1q-0.1 0-0.3 0-0.2 0.1-0.7 0.1-0.1 0-0.2 0c-1.2 0-2.1-1-2.1-2.2 0-1.2 0.7-2.1 1.7-2.3 2.6-0.8 5.5-1.2 9.2-1.2 6 0 11.9 1.4 16 3.7zm-2.6 6.3c0.7 0.4 1.2 1.1 1.2 1.9 0 1.2-0.9 2.1-2 2.1-0.6 0-0.9-0.1-1.3-0.3-3.1-2-7.3-3-11.9-3-2.1 0-4.3 0.2-5.9 0.7-0.5 0.2-0.7 0.2-1.1 0.2-1.2 0-1.9-1.1-1.9-2 0-1.3 0.8-1.8 1.4-2.1h0.1c2.3-0.6 4.5-1 7.6-1 5.2 0 10.1 1.2 13.8 3.5zm-2 5.8c0.5 0.3 1 0.7 1 1.7v0.1h-0.1c-0.2 0.8-0.9 1.4-1.8 1.4-0.4 0-0.7-0.2-1.1-0.3-2.7-1.6-6-2.5-9.5-2.5q-2.8 0-5.9 0.8h-0.1c-0.1 0-0.3 0-0.5 0q-0.2 0.1-0.4 0.1c-1 0-1.7-0.8-1.7-1.7 0-0.9 0.6-1.5 1.4-1.8 2.4-0.6 4.8-0.8 7.3-0.8 4.1 0 8.1 1 11.4 3zm-20.4-14.1c-0.8 0.2-1.4 0.7-1.4 1.8 0 0.9 0.7 1.7 1.6 1.7q0.1 0 0.2 0c0.4 0 0.7-0.1 1-0.1 2.4-0.6 5-0.9 7.6-0.9 5.1 0 10.4 1.2 13.9 3.2 0.4 0.2 0.6 0.3 1 0.3 1.1 0 1.8-0.7 1.9-1.8 0-0.8-0.4-1.4-1-1.7-4.4-2.5-10.2-3.7-15.8-3.7-3.3 0-6.3 0.3-9 1.2zm1.1 6.3c-0.7 0.3-1.1 0.7-1.1 1.6 0 0.7 0.5 1.5 1.4 1.5 0.3 0 0.5 0 0.9-0.2 1.6-0.4 3.8-0.7 6.1-0.7 4.9 0 9.1 1.2 12.2 3.1 0.3 0.1 0.6 0.2 1 0.2 0.9 0 1.5-0.7 1.5-1.6 0-0.5-0.3-1.1-0.9-1.4-3.8-2.4-8.6-3.5-13.6-3.5-3.1 0-5.3 0.4-7.5 1zm0.8 6.1c-0.6 0.2-1.1 0.6-1.1 1.3 0 0.6 0.5 1.2 1.2 1.2 0.2 0 0.6-0.1 0.9-0.1 1.9-0.5 3.9-0.8 6-0.8 3.6 0 7 0.9 9.8 2.5 0.3 0.2 0.6 0.3 0.8 0.3 0.6 0 1.2-0.4 1.4-1 0-0.7-0.3-1-0.8-1.3-3.2-1.9-7-2.9-11.1-2.9-2.5 0-4.8 0.2-7.1 0.8z"/>
	<path id="Layer" class="s2" d="m27.7 29.9c-0.2 0-0.5-0.1-0.8-0.3-2.8-1.6-6.2-2.5-9.8-2.5-2.1 0-4.1 0.3-6 0.8-0.3 0-0.7 0.1-0.9 0.1-0.7 0-1.2-0.6-1.2-1.2 0-0.7 0.5-1.1 1.1-1.3 2.3-0.6 4.6-0.8 7.1-0.8 4.1 0 7.9 1 11.1 2.9 0.5 0.3 0.8 0.6 0.8 1.3-0.2 0.6-0.8 1-1.4 1zm2.1-5c-0.4 0-0.7-0.1-1-0.2-3.1-1.9-7.3-3.1-12.2-3.1-2.3 0-4.5 0.3-6.1 0.7-0.4 0.2-0.6 0.2-0.9 0.2-0.9 0-1.4-0.8-1.4-1.5 0-0.9 0.4-1.3 1.1-1.6 2.2-0.6 4.4-1 7.5-1 5 0 9.8 1.1 13.6 3.5 0.6 0.3 0.9 0.9 0.9 1.4 0 0.9-0.6 1.6-1.5 1.6zm2.3-5.8c-0.4 0-0.6-0.1-1-0.3-3.5-2-8.8-3.2-13.9-3.2-2.6 0-5.2 0.3-7.6 0.9-0.3 0-0.6 0.1-1 0.1-1 0.2-1.8-0.7-1.8-1.7 0-1.1 0.6-1.6 1.4-1.8 2.7-0.9 5.7-1.2 9-1.2 5.6 0 11.4 1.2 15.8 3.7 0.6 0.3 1 0.9 1 1.7-0.1 1.1-0.8 1.8-1.9 1.8z"/>
</svg>