<svg version="1.2" xmlns="http://www.w3.org/2000/svg" viewBox="0 0 44 32" width="44" height="32">
	<title>youtube-svg</title>
	<defs>
		<linearGradient id="g1" x2="1" gradientUnits="userSpaceOnUse" gradientTransform="matrix(31.43,31.43,-31.43,31.43,7.816,1.871)">
			<stop offset="0" stop-color="#f44f5a"/>
			<stop offset=".443" stop-color="#ee3d4a"/>
			<stop offset="1" stop-color="#e52030"/>
		</linearGradient>
	</defs>
	<style>
		.s0 { fill: url(#g1) } 
		.s1 { opacity: .1;fill: #000000 } 
		.s2 { fill: #ffffff } 
	</style>
	<path id="Layer" class="s0" d="m43 26.6c-0.4 2.2-2.3 3.9-4.6 4.2-3.6 0.6-9.7 1.2-16.5 1.2-6.6 0-12.7-0.6-16.4-1.2-2.3-0.3-4.2-2-4.6-4.2-0.5-2.5-0.9-6.1-0.9-10.6 0-4.5 0.4-8.1 0.9-10.6 0.4-2.2 2.3-3.9 4.6-4.2 3.6-0.6 9.6-1.2 16.4-1.2 6.8 0 12.8 0.6 16.5 1.2 2.3 0.3 4.2 2 4.6 4.2 0.5 2.5 1 6.1 1 10.6-0.1 4.5-0.5 8.1-1 10.6z"/>
	<path id="Layer" class="s1" d="m30.4 14.4l-11.5-7.6c-0.6-0.4-1.3-0.4-1.9-0.1-0.6 0.3-1 1-1 1.7v15.2c0 0.7 0.4 1.4 1 1.7q0.4 0.2 0.9 0.2 0.5 0 1-0.3l11.5-7.6c0.5-0.4 0.8-1 0.8-1.6 0-0.6-0.3-1.2-0.8-1.6z"/>
	<path id="Layer" class="s1" d="m18.7 7.2l10.8 7.2c0.7 0.5 1.1 1 1.1 1.5 0 0.6-0.2 1-0.7 1.4-0.4 0.2-11 7.3-11 7.3-0.9 0.6-2.4 0.5-2.4-1.5v-14.4c0-2 1.6-1.9 2.2-1.5z"/>
	<path id="Layer" class="s2" d="m17 23.6v-15.2c0-0.7 0.8-1.2 1.4-0.7l11.4 7.5c0.6 0.4 0.6 1.2 0 1.6l-11.4 7.5c-0.6 0.5-1.4 0-1.4-0.7z"/>
</svg>